<?xml version="1.0" encoding="iso-8859-1"?>
<!-- Generator: Adobe Illustrator 22.1.0, SVG Export Plug-In . SVG Version: 6.00 Build 0)  -->
<svg xmlns="http://www.w3.org/2000/svg" xmlns:xlink="http://www.w3.org/1999/xlink" version="1.1" id="Layer_1" x="0px" y="0px" viewBox="0 0 64 64" style="enable-background:new 0 0 64 64;" xml:space="preserve" width="64px" height="64px">
<linearGradient id="SVGID_1__48165" gradientUnits="userSpaceOnUse" x1="32" y1="12" x2="32" y2="52" spreadMethod="reflect">
	<stop offset="0" style="stop-color:#1A6DFF"/>
	<stop offset="1" style="stop-color:#C822FF"/>
</linearGradient>
<path style="fill:url(#SVGID_1__48165);" d="M58,16.82h-0.01C57.94,14.15,55.81,12,53.2,12H10.8c-2.61,0-4.74,2.15-4.79,4.82H6  c0,0.01,0.01,0.02,0.01,0.04S6,16.89,6,16.91v30.18C6,49.8,8.16,52,10.8,52h42.4c2.64,0,4.8-2.2,4.8-4.91V16.91  c0-0.02-0.01-0.03-0.01-0.05S58,16.83,58,16.82z M50.67,14L32,27.11L13.33,14H50.67z M10.03,14.13L32,29.56l21.97-15.43  c1.15,0.34,2,1.42,2.02,2.72c-0.03,0.64-0.87,1.44-1.3,1.74L32,34.77L9.3,18.58c-0.42-0.29-1.26-1.09-1.29-1.73  C8.03,15.55,8.88,14.47,10.03,14.13z M12,23v27h-1.2C9.26,50,8,48.69,8,47.09V20.11c0.07,0.05,0.12,0.09,0.14,0.11L12.05,23H12z   M50,50H14V24.39l18,12.84l18-12.84V50z M56,47.09c0,1.6-1.26,2.91-2.8,2.91H52V23h-0.05l3.9-2.78c0.02-0.02,0.08-0.06,0.15-0.11  V47.09z"/>
<linearGradient id="SVGID_2__48165" gradientUnits="userSpaceOnUse" x1="53.975" y1="20.11" x2="53.975" y2="50" spreadMethod="reflect">
	<stop offset="0" style="stop-color:#6DC7FF"/>
	<stop offset="1" style="stop-color:#E6ABFF"/>
</linearGradient>
<path style="fill:url(#SVGID_2__48165);" d="M56,20.11v26.98c0,1.6-1.26,2.91-2.8,2.91H52V23h-0.05l3.9-2.78  C55.87,20.2,55.93,20.16,56,20.11z"/>
<linearGradient id="SVGID_3__48165" gradientUnits="userSpaceOnUse" x1="10.025" y1="20.11" x2="10.025" y2="50" spreadMethod="reflect">
	<stop offset="0" style="stop-color:#6DC7FF"/>
	<stop offset="1" style="stop-color:#E6ABFF"/>
</linearGradient>
<path style="fill:url(#SVGID_3__48165);" d="M12.05,23H12v27h-1.2C9.26,50,8,48.69,8,47.09V20.11c0.07,0.05,0.12,0.09,0.14,0.11L12.05,23z  "/>
<linearGradient id="SVGID_4__48165" gradientUnits="userSpaceOnUse" x1="32" y1="14.13" x2="32" y2="34.77" spreadMethod="reflect">
	<stop offset="0" style="stop-color:#6DC7FF"/>
	<stop offset="1" style="stop-color:#E6ABFF"/>
</linearGradient>
<path style="fill:url(#SVGID_4__48165);" d="M55.99,16.85c-0.03,0.64-0.87,1.44-1.3,1.74L32,34.77L9.3,18.58  c-0.42-0.29-1.26-1.09-1.29-1.73c0.02-1.3,0.87-2.38,2.02-2.72L32,29.56l21.97-15.43C55.12,14.47,55.97,15.55,55.99,16.85z"/>
</svg>
